<?xml version="1.0" encoding="UTF-8"?>
<svg xmlns="http://www.w3.org/2000/svg" xmlns:xlink="http://www.w3.org/1999/xlink" width="40px" height="40px" viewBox="0 0 40 40" version="1.1">
<g id="surface1">
<path style=" stroke:none;fill-rule:evenodd;fill:rgb(0%,0%,0%);fill-opacity:1;" d="M 17.445312 0.121094 C 1.878906 2.246094 -5.378906 20.292969 4.394531 32.574219 C 14.152344 44.832031 34.011719 41.304688 38.976562 26.429688 C 43.660156 12.398438 31.988281 -1.863281 17.445312 0.121094 M 13.890625 8.652344 L 13.890625 9.601562 L 26.109375 9.601562 L 26.109375 7.699219 L 28.09375 7.699219 L 28.09375 9.601562 L 29.84375 9.601562 C 32.023438 9.601562 32.367188 9.730469 32.617188 10.617188 C 32.785156 11.222656 32.71875 31.015625 32.550781 31.390625 C 32.371094 31.785156 32 32.109375 31.605469 32.21875 C 31.195312 32.332031 8.804688 32.332031 8.394531 32.21875 C 8 32.109375 7.628906 31.785156 7.449219 31.390625 C 7.222656 30.890625 7.222656 10.929688 7.453125 10.4375 C 7.804688 9.671875 8.027344 9.601562 10.164062 9.601562 L 11.90625 9.601562 L 11.90625 7.699219 L 13.890625 7.699219 L 13.890625 8.652344 M 9.304688 13.351562 L 9.324219 15.117188 L 30.675781 15.117188 L 30.695312 13.351562 L 30.71875 11.585938 L 28.09375 11.585938 L 28.09375 12.617188 L 26.109375 12.617188 L 26.109375 11.585938 L 13.890625 11.585938 L 13.890625 12.617188 L 11.90625 12.617188 L 11.90625 11.585938 L 9.28125 11.585938 L 9.304688 13.351562 M 9.285156 23.730469 L 9.285156 30.316406 L 30.714844 30.316406 L 30.714844 17.144531 L 9.285156 17.144531 L 9.285156 23.730469 M 14.128906 20.515625 L 14.128906 21.667969 L 11.824219 21.667969 L 11.824219 19.363281 L 14.128906 19.363281 L 14.128906 20.515625 M 21.03125 20.515625 L 21.03125 21.667969 L 18.730469 21.667969 L 18.730469 19.363281 L 21.03125 19.363281 L 21.03125 20.515625 M 27.9375 20.515625 L 27.9375 21.667969 L 25.636719 21.667969 L 25.636719 19.363281 L 27.9375 19.363281 L 27.9375 20.515625 M 14.128906 26.390625 L 14.128906 27.539062 L 11.824219 27.539062 L 11.824219 25.238281 L 14.128906 25.238281 L 14.128906 26.390625 M 21.03125 26.390625 L 21.03125 27.539062 L 18.730469 27.539062 L 18.730469 25.238281 L 21.03125 25.238281 L 21.03125 26.390625 M 27.9375 26.390625 L 27.9375 27.539062 L 25.714844 27.539062 L 25.714844 25.238281 L 27.9375 25.238281 L 27.9375 26.390625 "/>
</g>
</svg>
