<?xml version="1.0" encoding="UTF-8"?>
<svg xmlns="http://www.w3.org/2000/svg" xmlns:xlink="http://www.w3.org/1999/xlink" width="40px" height="40px" viewBox="0 0 40 40" version="1.1">
<g id="surface1">
<path style=" stroke:none;fill-rule:evenodd;fill:rgb(0%,0%,0%);fill-opacity:1;" d="M 17.605469 0.105469 C 1.164062 2.171875 -5.867188 22.121094 5.671875 33.96875 C 16.101562 44.679688 34.359375 40.488281 38.992188 26.320312 C 43.554688 12.367188 32.066406 -1.710938 17.605469 0.105469 M 28.070312 11.539062 C 29.125 12.761719 32.414062 16.871094 32.492188 17.066406 C 32.640625 17.4375 32.4375 17.699219 31.269531 18.625 C 30.054688 19.585938 30.003906 19.609375 29.566406 19.386719 C 28.976562 19.078125 28.011719 20.082031 28.398438 20.59375 C 28.828125 21.160156 28.519531 22.292969 27.804688 22.789062 C 27.472656 23.019531 27.425781 23.097656 27.421875 23.414062 C 27.414062 24.136719 26.90625 24.785156 26.199219 24.976562 C 25.871094 25.0625 25.832031 25.109375 25.773438 25.457031 C 25.660156 26.128906 24.941406 26.761719 24.289062 26.761719 C 23.988281 26.761719 23.964844 26.785156 23.910156 27.128906 C 23.738281 28.191406 22.582031 28.667969 21.503906 28.125 C 20.925781 27.832031 20.957031 27.824219 20.222656 28.4375 C 19.035156 29.425781 17.714844 29.242188 17.414062 28.042969 C 17.367188 27.867188 17.292969 27.839844 16.855469 27.828125 C 16.058594 27.808594 15.414062 27.320312 15.214844 26.585938 C 15.125 26.253906 15.109375 26.242188 14.664062 26.238281 C 13.871094 26.226562 13.179688 25.636719 13.078125 24.878906 C 13.03125 24.53125 13.007812 24.507812 12.71875 24.507812 C 11.296875 24.507812 10.5625 22.773438 11.519531 21.679688 C 11.714844 21.449219 11.058594 21.0625 10.730469 21.214844 C 10.34375 21.390625 10.136719 21.328125 8.976562 20.695312 C 7.054688 19.652344 7.03125 20.019531 9.285156 15.960938 C 11.582031 11.828125 11.257812 12.078125 13.058594 13.0625 C 14.339844 13.761719 14.589844 13.996094 14.539062 14.429688 C 14.480469 14.914062 14.914062 14.835938 16.535156 14.078125 C 18.1875 13.304688 18.613281 13.234375 19.324219 13.601562 L 19.726562 13.8125 L 20.117188 13.527344 C 20.613281 13.160156 20.707031 13.164062 22.582031 13.613281 C 24.589844 14.097656 25.277344 14.101562 24.847656 13.628906 C 24.480469 13.21875 24.652344 12.894531 25.726562 11.988281 C 27.226562 10.726562 27.347656 10.703125 28.070312 11.539062 M 26.667969 12.269531 C 26.382812 12.507812 26.015625 12.8125 25.847656 12.949219 L 25.546875 13.199219 L 27.710938 15.871094 C 28.898438 17.34375 29.914062 18.542969 29.960938 18.542969 C 30.109375 18.542969 31.644531 17.261719 31.59375 17.179688 C 31.460938 16.964844 27.304688 11.875 27.246094 11.859375 C 27.210938 11.847656 26.949219 12.035156 26.667969 12.269531 M 10.042969 16.300781 C 9.140625 17.929688 8.390625 19.296875 8.378906 19.332031 C 8.351562 19.40625 10.066406 20.375 10.21875 20.375 C 10.3125 20.375 13.664062 14.378906 13.601562 14.328125 C 13.496094 14.230469 11.839844 13.332031 11.769531 13.332031 C 11.722656 13.332031 10.949219 14.667969 10.042969 16.300781 M 19.65625 14.953125 C 17.960938 16.242188 17.96875 16.152344 19.425781 18.089844 C 20.832031 19.964844 20.867188 20 21.269531 20 C 22.101562 20 22.179688 19.34375 21.484375 18.28125 C 20.503906 16.789062 21.019531 16.109375 22.878906 16.4375 C 23.386719 16.527344 24.105469 16.648438 24.472656 16.710938 L 25.144531 16.820312 L 25.09375 17.214844 C 25.066406 17.429688 25.035156 17.617188 25.023438 17.632812 C 25.011719 17.648438 24.339844 17.550781 23.53125 17.421875 C 22.71875 17.289062 22.015625 17.183594 21.96875 17.183594 C 21.804688 17.183594 21.875 17.367188 22.269531 17.992188 C 23.023438 19.191406 23.046875 19.792969 22.355469 20.480469 C 21.347656 21.488281 20.699219 21.160156 18.835938 18.6875 C 17.058594 16.332031 17.03125 15.808594 18.628906 14.679688 C 18.789062 14.570312 18.875 14.445312 18.835938 14.378906 C 18.699219 14.160156 18.203125 14.289062 16.890625 14.886719 C 15.175781 15.664062 14.984375 15.714844 14.4375 15.550781 L 14.011719 15.421875 L 12.808594 17.59375 C 12.148438 18.789062 11.527344 19.902344 11.429688 20.066406 L 11.253906 20.367188 L 11.828125 20.65625 L 12.40625 20.945312 L 13.15625 20.351562 L 13.679688 20.976562 L 12.863281 21.652344 C 12.011719 22.359375 11.925781 22.472656 11.925781 22.90625 C 11.925781 24.023438 12.835938 23.949219 14.308594 22.714844 L 15.234375 21.9375 L 15.5 22.261719 C 15.644531 22.4375 15.734375 22.609375 15.699219 22.640625 C 15.664062 22.675781 15.242188 23.023438 14.765625 23.417969 C 13.847656 24.175781 13.691406 24.507812 13.988281 25.0625 C 14.328125 25.699219 14.921875 25.535156 16.210938 24.453125 C 17.441406 23.425781 17.289062 23.488281 17.585938 23.882812 L 17.828125 24.195312 L 16.945312 24.914062 C 15.964844 25.714844 15.8125 26.007812 16.089844 26.550781 C 16.4375 27.222656 16.953125 27.125 18.125 26.171875 C 19.519531 25.035156 19.390625 25.101562 19.664062 25.414062 C 19.976562 25.769531 20.003906 25.714844 19.179688 26.386719 C 18.160156 27.214844 17.957031 27.617188 18.355469 28.015625 C 18.796875 28.453125 18.9375 28.378906 21.171875 26.53125 L 23.050781 24.980469 L 23.378906 25.34375 C 24.101562 26.140625 24.976562 26.0625 24.976562 25.199219 C 24.976562 24.773438 24.851562 24.667969 23.378906 23.890625 C 21.421875 22.851562 21.570312 22.972656 21.757812 22.582031 C 21.960938 22.15625 21.890625 22.140625 23.519531 23.007812 C 24.289062 23.417969 24.976562 23.757812 25.042969 23.757812 C 25.109375 23.757812 25.25 23.839844 25.351562 23.945312 C 25.78125 24.371094 26.574219 24.03125 26.574219 23.414062 C 26.574219 23.011719 26.378906 22.871094 24.402344 21.828125 L 22.65625 20.90625 L 22.847656 20.570312 C 22.953125 20.386719 23.046875 20.222656 23.058594 20.207031 C 23.066406 20.191406 23.894531 20.625 24.894531 21.171875 C 25.894531 21.71875 26.808594 22.191406 26.925781 22.21875 C 27.375 22.335938 27.902344 21.398438 27.628906 20.972656 C 27.589844 20.910156 26.757812 20.429688 25.773438 19.902344 C 23.640625 18.757812 23.648438 18.761719 24.179688 18.140625 C 24.191406 18.125 24.933594 18.503906 25.824219 18.980469 L 27.445312 19.84375 L 27.640625 19.570312 C 27.890625 19.222656 28.144531 18.972656 28.488281 18.722656 L 28.761719 18.523438 L 27.175781 16.546875 C 26.050781 15.144531 25.546875 14.582031 25.445312 14.621094 C 24.507812 14.984375 24.617188 14.988281 22.734375 14.554688 C 21.773438 14.332031 20.945312 14.136719 20.890625 14.117188 C 20.839844 14.101562 20.285156 14.476562 19.65625 14.953125 M 22.222656 26.738281 C 21.71875 27.140625 21.691406 27.183594 21.847656 27.300781 C 22.5 27.777344 23.367188 27.234375 23.097656 26.523438 C 22.976562 26.203125 22.851562 26.234375 22.222656 26.738281 "/>
</g>
</svg>
