<?xml version="1.0" encoding="UTF-8"?>
<svg xmlns="http://www.w3.org/2000/svg" xmlns:xlink="http://www.w3.org/1999/xlink" width="40px" height="40px" viewBox="0 0 40 40" version="1.1">
<g id="surface1">
<path style=" stroke:none;fill-rule:evenodd;fill:rgb(0%,0%,0%);fill-opacity:1;" d="M 17.539062 0.113281 C 1.046875 2.136719 -5.941406 22.34375 5.785156 34.105469 C 17.636719 45.988281 38.074219 38.929688 39.886719 22.332031 C 41.308594 9.304688 30.464844 -1.472656 17.539062 0.113281 M 20.695312 8.453125 C 24.6875 8.910156 27.15625 11.214844 27.164062 14.496094 C 27.167969 16.5625 25.941406 18.390625 23.445312 20.039062 C 21.890625 21.0625 21.398438 21.863281 21.394531 23.390625 C 21.390625 24.148438 21.324219 24.171875 19.230469 24.167969 C 17.101562 24.167969 17.167969 24.199219 17.265625 23.207031 C 17.519531 20.640625 18.261719 19.476562 20.648438 17.898438 C 22.648438 16.578125 23.261719 15.070312 22.472656 13.421875 C 21.097656 10.554688 17.347656 11.402344 17.140625 14.625 L 17.082031 15.507812 L 12.800781 15.507812 L 12.871094 14.621094 C 13.214844 10.164062 16.054688 7.921875 20.695312 8.453125 M 20.382812 26.765625 C 22.054688 27.644531 22.1875 30.246094 20.609375 31.171875 C 18.6875 32.296875 16.566406 31.105469 16.578125 28.910156 C 16.589844 27.148438 18.769531 25.917969 20.382812 26.765625 "/>
</g>
</svg>
