<?xml version="1.0" encoding="UTF-8"?>
<svg xmlns="http://www.w3.org/2000/svg" xmlns:xlink="http://www.w3.org/1999/xlink" width="40px" height="40px" viewBox="0 0 40 40" version="1.1">
<g id="surface1">
<path style=" stroke:none;fill-rule:evenodd;fill:rgb(0%,0%,0%);fill-opacity:1;" d="M 17.785156 0.078125 C 8.625 1.125 1.519531 8.066406 0.132812 17.320312 C 0.00390625 18.179688 0 21.804688 0.128906 22.644531 C 1.902344 34.347656 12.675781 41.976562 24.082031 39.609375 C 34.765625 37.394531 41.671875 27.046875 39.675781 16.246094 C 37.796875 6.074219 28.085938 -1.097656 17.785156 0.078125 M 22.96875 9.496094 C 24.710938 10.355469 25.117188 12.660156 23.757812 14.015625 C 22.164062 15.609375 19.492188 14.789062 19.03125 12.566406 C 18.566406 10.351562 20.941406 8.5 22.96875 9.496094 M 20.652344 16.03125 C 21.960938 16.308594 22.792969 17.261719 22.84375 18.535156 C 22.863281 19.070312 22.796875 19.382812 21.824219 23.304688 C 20.875 27.121094 20.785156 27.523438 20.855469 27.78125 C 21.015625 28.371094 21.53125 28.523438 22.703125 28.328125 C 23.582031 28.179688 23.554688 28.160156 23.394531 28.765625 C 22.859375 30.78125 18.34375 31.503906 16.792969 29.820312 C 15.824219 28.773438 15.832031 28.597656 17.066406 23.625 C 18.101562 19.445312 18.183594 18.980469 17.953125 18.652344 C 17.703125 18.289062 16.957031 18.1875 16.105469 18.390625 C 15.339844 18.578125 15.328125 18.5625 15.574219 17.753906 C 15.953125 16.535156 18.667969 15.609375 20.652344 16.03125 "/>
</g>
</svg>
