<?xml version="1.0" encoding="UTF-8"?>
<svg xmlns="http://www.w3.org/2000/svg" xmlns:xlink="http://www.w3.org/1999/xlink" width="40px" height="40px" viewBox="0 0 40 40" version="1.1">
<g id="surface1">
<path style=" stroke:none;fill-rule:evenodd;fill:rgb(0%,0%,0%);fill-opacity:1;" d="M 14.625 0.109375 C 3.078125 1.691406 -3.425781 14.097656 1.863281 24.449219 C 6.03125 32.605469 16.175781 35.886719 24.4375 31.75 L 25.179688 31.378906 L 29.167969 35.339844 C 32.765625 38.914062 33.203125 39.328125 33.65625 39.558594 C 37.421875 41.488281 41.375 37.621094 39.527344 33.820312 C 39.277344 33.3125 39.066406 33.085938 35.304688 29.316406 L 31.347656 25.347656 L 31.867188 24.335938 C 37.96875 12.378906 27.9375 -1.714844 14.625 0.109375 M 18.101562 4.148438 C 28.945312 5.355469 33.421875 18.601562 25.488281 26.007812 C 17.414062 33.542969 4.214844 27.835938 4.195312 16.804688 C 4.183594 10.0625 8.871094 4.945312 15.804688 4.121094 C 16.277344 4.066406 17.488281 4.082031 18.101562 4.148438 M 18.078125 6.164062 C 17.035156 6.515625 16.492188 7.96875 17.011719 9.027344 C 17.308594 9.628906 17.667969 9.898438 18.527344 10.164062 C 21.148438 10.96875 22.746094 12.605469 23.507812 15.269531 C 24.085938 17.277344 26.917969 17.316406 27.5 15.324219 C 27.890625 13.980469 26.472656 10.960938 24.554688 9.039062 C 22.570312 7.058594 19.488281 5.691406 18.078125 6.164062 "/>
</g>
</svg>
