<?xml version="1.0" encoding="UTF-8"?>
<svg xmlns="http://www.w3.org/2000/svg" xmlns:xlink="http://www.w3.org/1999/xlink" width="40px" height="40px" viewBox="0 0 40 40" version="1.1">
<g id="surface1">
<path style=" stroke:none;fill-rule:evenodd;fill:rgb(0%,0%,0%);fill-opacity:1;" d="M 18.144531 0.0429688 C 18.042969 0.0585938 17.675781 0.105469 17.320312 0.148438 C 5.253906 1.613281 -2.742188 14.066406 0.828125 25.832031 C 2.929688 32.769531 8.773438 38.128906 15.824219 39.59375 C 19.03125 40.261719 22.765625 40.105469 25.832031 39.171875 C 33.308594 36.90625 38.683594 30.589844 39.867188 22.679688 C 40 21.800781 40 18.199219 39.867188 17.320312 C 38.519531 8.316406 31.9375 1.640625 22.964844 0.171875 C 22.285156 0.0625 18.617188 -0.0390625 18.144531 0.0429688 M 21.554688 5.789062 C 31.316406 6.851562 37.171875 17.445312 32.847656 26.222656 C 27.601562 36.886719 12.539062 36.957031 7.207031 26.34375 C 2.179688 16.332031 10.386719 4.574219 21.554688 5.789062 M 18.75 8.078125 C 10.445312 8.945312 5.527344 17.945312 9.296875 25.390625 C 13.726562 34.148438 26.3125 34.148438 30.699219 25.390625 C 34.9375 16.933594 28.152344 7.097656 18.75 8.078125 M 20.984375 12.003906 C 27.609375 12.832031 30.398438 20.957031 25.679688 25.679688 C 21.339844 30.015625 13.96875 28.101562 12.257812 22.191406 C 10.671875 16.722656 15.320312 11.292969 20.984375 12.003906 M 18.785156 15.328125 C 15.203125 16.265625 13.980469 20.777344 16.601562 23.398438 C 19.636719 26.429688 24.789062 24.292969 24.789062 20 C 24.789062 16.851562 21.8125 14.535156 18.785156 15.328125 "/>
</g>
</svg>
