<?xml version="1.0" encoding="UTF-8"?>
<svg xmlns="http://www.w3.org/2000/svg" xmlns:xlink="http://www.w3.org/1999/xlink" width="40px" height="40px" viewBox="0 0 40 40" version="1.1">
<g id="surface1">
<path style=" stroke:none;fill-rule:evenodd;fill:rgb(0%,0%,0%);fill-opacity:1;" d="M 20.648438 0.136719 C 20.527344 0.367188 19.945312 2.199219 19.757812 2.933594 C 19.554688 3.730469 19.753906 3.636719 17.9375 3.820312 C 17.304688 3.882812 16.625 3.980469 16.429688 4.039062 L 16.074219 4.140625 L 15.535156 3.28125 C 14.667969 1.894531 14.023438 1.027344 13.863281 1.027344 C 13.222656 1.019531 9.761719 2.664062 9.761719 2.976562 C 9.761719 3.25 10.441406 5.789062 10.675781 6.390625 C 10.710938 6.484375 10.484375 6.710938 9.824219 7.25 C 9.332031 7.652344 8.730469 8.171875 8.488281 8.40625 L 8.046875 8.828125 L 7.179688 8.417969 C 6.699219 8.195312 5.917969 7.855469 5.4375 7.664062 L 4.5625 7.316406 L 4.261719 7.65625 C 3.804688 8.167969 3.003906 9.390625 2.496094 10.34375 L 2.042969 11.195312 L 2.273438 11.433594 C 2.398438 11.566406 2.910156 12.035156 3.410156 12.472656 C 3.910156 12.914062 4.4375 13.382812 4.589844 13.511719 L 4.859375 13.753906 L 4.421875 15.167969 C 4.179688 15.945312 3.960938 16.699219 3.929688 16.839844 C 3.871094 17.125 3.890625 17.117188 2.816406 17.25 C 1.871094 17.367188 0.371094 17.640625 0.238281 17.722656 C -0.0820312 17.921875 -0.0820312 22.097656 0.238281 22.292969 C 0.359375 22.367188 1.773438 22.632812 2.738281 22.761719 C 3.902344 22.917969 3.867188 22.910156 3.921875 23.140625 C 3.945312 23.261719 4.171875 24.019531 4.417969 24.832031 L 4.867188 26.304688 L 4.636719 26.484375 C 4.265625 26.773438 3.183594 27.722656 2.585938 28.285156 L 2.035156 28.804688 L 2.492188 29.664062 C 2.996094 30.609375 3.796875 31.832031 4.265625 32.363281 L 4.5625 32.703125 L 5.4375 32.351562 C 5.917969 32.160156 6.699219 31.820312 7.179688 31.597656 L 8.046875 31.191406 L 8.449219 31.574219 C 8.667969 31.785156 9.269531 32.304688 9.785156 32.730469 C 10.46875 33.292969 10.710938 33.535156 10.671875 33.628906 C 10.441406 34.226562 9.761719 36.765625 9.761719 37.039062 C 9.761719 37.351562 13.21875 38.996094 13.863281 38.992188 C 14.019531 38.992188 14.832031 37.890625 15.617188 36.613281 L 16.070312 35.875 L 16.429688 35.980469 C 16.625 36.035156 17.304688 36.136719 17.9375 36.199219 C 19.742188 36.382812 19.566406 36.304688 19.726562 36.96875 C 19.921875 37.785156 20.625 39.921875 20.714844 39.976562 C 20.902344 40.09375 24.082031 39.726562 24.890625 39.496094 L 25.300781 39.378906 L 25.359375 37.992188 C 25.390625 37.230469 25.394531 36.363281 25.367188 36.070312 L 25.316406 35.535156 L 25.894531 35.367188 C 26.210938 35.273438 26.941406 34.953125 27.519531 34.652344 L 28.570312 34.101562 L 29.339844 34.78125 C 30.183594 35.527344 31.335938 36.464844 31.484375 36.527344 C 31.683594 36.609375 35 33.78125 35 33.53125 C 35 33.429688 34.171875 32.046875 33.558594 31.128906 C 32.910156 30.160156 32.925781 30.34375 33.445312 29.71875 C 33.683594 29.4375 34.105469 28.78125 34.378906 28.265625 L 34.882812 27.328125 L 35.140625 27.375 C 35.875 27.503906 37.527344 27.726562 38.121094 27.773438 L 38.792969 27.828125 L 39.234375 26.457031 C 39.742188 24.875 40 23.898438 40 23.574219 C 40 23.332031 39.101562 22.839844 37.183594 22.03125 L 36.546875 21.765625 L 36.585938 21.261719 C 36.609375 20.984375 36.628906 20.421875 36.628906 20.007812 C 36.628906 19.597656 36.609375 19.035156 36.585938 18.757812 L 36.546875 18.253906 L 37.183594 17.984375 C 37.53125 17.835938 38.308594 17.480469 38.910156 17.195312 C 40.273438 16.542969 40.257812 16.734375 39.238281 13.574219 L 38.792969 12.191406 L 38.121094 12.242188 C 37.527344 12.292969 35.875 12.511719 35.140625 12.640625 L 34.882812 12.6875 L 34.378906 11.75 C 34.105469 11.234375 33.683594 10.582031 33.445312 10.296875 C 32.925781 9.675781 32.910156 9.859375 33.558594 8.886719 C 34.171875 7.972656 35 6.589844 35 6.484375 C 35 6.234375 31.683594 3.410156 31.484375 3.492188 C 31.332031 3.554688 30.015625 4.625 29.269531 5.296875 L 28.578125 5.917969 L 27.523438 5.367188 C 26.941406 5.066406 26.207031 4.742188 25.886719 4.648438 L 25.304688 4.480469 L 25.359375 4 C 25.390625 3.738281 25.390625 2.871094 25.359375 2.078125 L 25.300781 0.636719 L 24.890625 0.519531 C 24.261719 0.339844 23.644531 0.25 22.199219 0.121094 C 20.582031 -0.0273438 20.734375 -0.0273438 20.648438 0.136719 M 21.925781 7.765625 C 29.242188 8.996094 33.835938 15.59375 32.296875 22.652344 C 31.074219 28.261719 25.957031 32.378906 20.199219 32.394531 C 13.347656 32.414062 7.699219 26.816406 7.699219 20.007812 C 7.699219 13.453125 12.460938 8.425781 19.445312 7.609375 C 19.890625 7.558594 21.171875 7.640625 21.925781 7.765625 M 18.769531 11.609375 C 17.019531 12.054688 15.929688 14.011719 16.363281 15.929688 C 16.417969 16.15625 16.449219 16.378906 16.4375 16.417969 C 16.390625 16.597656 16.613281 17.582031 16.742188 17.742188 C 16.820312 17.839844 16.96875 18.117188 17.066406 18.355469 C 17.167969 18.59375 17.339844 18.925781 17.445312 19.09375 C 18.078125 20.113281 17.410156 20.722656 14.5 21.777344 C 12.714844 22.421875 11.15625 26.59375 12.449219 27.25 C 15.472656 28.78125 23.421875 28.910156 27.242188 27.492188 C 27.980469 27.21875 28.039062 27.09375 27.996094 25.878906 C 27.910156 23.457031 26.9375 22.289062 24.15625 21.265625 C 22.652344 20.710938 21.976562 19.984375 22.378906 19.355469 C 23.40625 17.757812 23.707031 16.6875 23.679688 14.726562 C 23.648438 12.449219 21.304688 10.960938 18.769531 11.609375 "/>
</g>
</svg>
